PathFileType	4	(X/Y/Z)	Patient4_TMGait_0pt3_02_right_22.trc.trc
DataRate	CameraRate	NumFrames	NumMarkers	Units	OrigDataRate	OrigDataStartFrame	OrigNumFrames
50.541516245487	50.541516245487	4	33	mm	50.541516245487	89	       141
Frame#	Time	Sacral			L.Shoulder			Chest			R.Shoulder			Neck			R.ASIS			L.ASIS			R.Thigh.Superior			R.Thigh.Lateral			R.Thigh.Inferior			R.Patella			L.Thigh.Superior			L.Thigh.Lateral			L.Thigh.Inferior			L.Patella			L.Shank.Superior			L.Shank.Lateral			L.Shank.Inferior			R.Shank.Superior			R.Shank.Lateral			R.Shank.Inferior			R.Heel			R.Midfoot.Superior			R.Midfoot.Lateral			R.Toe			L.Heel			L.Midfoot.Lateral			L.Midfoot.Superior			L.Toe			L.Elbow			L.Wrist			R.Elbow			R.Wrist			
		X1	Y1	Z1	X2	Y2	Z2	X3	Y3	Z3	X4	Y4	Z4	X5	Y5	Z5	X6	Y6	Z6	X7	Y7	Z7	X8	Y8	Z8	X9	Y9	Z9	X10	Y10	Z10	X11	Y11	Z11	X12	Y12	Z12	X13	Y13	Z13	X14	Y14	Z14	X15	Y15	Z15	X16	Y16	Z16	X17	Y17	Z17	X18	Y18	Z18	X19	Y19	Z19	X20	Y20	Z20	X21	Y21	Z21	X22	Y22	Z22	X23	Y23	Z23	X24	Y24	Z24	X25	Y25	Z25	X26	Y26	Z26	X27	Y27	Z27	X28	Y28	Z28	X29	Y29	Z29	X30	Y30	Z30	X31	Y31	Z31	X32	Y32	Z32	X33	Y33	Z33	

89	43.871142857143	775.319328935627	1010.562079805143	477.764593509756	927.120625460035	1425.023037555478	262.388972036918	1057.997382873215	1356.275967971056	402.402310731941	1012.896364014316	1437.531317657697	585.908849443363	942.306535764898	1492.220086165560	417.210680410939	1013.859794755718	931.757670779973	564.590098856347	967.183213572135	958.770980453124	294.550253105339	1000.183611481354	719.451333548284	541.495929722660	896.037026078860	629.079244778408	610.271563029936	950.920798785762	559.555352499974	529.549067969848	926.385457535041	469.438279912811	539.626675899635	1037.092544108034	762.158848897649	332.498502730544	966.642443052429	634.563742461588	269.781515337703	1061.570474470180	568.729928865112	332.883436002961	1071.982928772584	496.461563363766	338.075712911359	1045.118809912453	423.190299390945	329.849118313346	958.718856126628	307.516331903154	277.696235042179	1013.059426193966	195.660254194183	343.795059944571	870.400400091384	393.776409759110	550.201428682285	772.134054757204	318.149232754301	617.435023298282	782.171943291783	213.064569777071	557.338063472386	605.832862430758	79.217558050846	534.481557566773	784.914608041899	102.557147770330	567.740298150640	688.401965788296	54.834472946622	605.704462958744	893.084556332921	36.431045416101	590.577353945040	886.736740048297	39.655955148895	381.212770084194	961.118835127931	36.639390280061	301.483683788508	1044.915807131673	97.219636343254	328.682460065273	1172.563143018391	43.642705487492	299.796236141989	849.716886677726	1077.250297245455	159.019772180098	970.948143184551	845.715339259037	141.711897157906	1173.977655228334	1133.577939020887	693.314564601782	1429.106496979586	1102.002369329267	662.222413571544	
90	43.890928571429	775.496542692411	1010.486448150426	472.086620106493	929.589413417058	1425.726647491368	258.929200361401	1058.711882070504	1356.533765273871	400.334568011243	1011.512930429773	1437.352259633599	583.477725984680	942.861008984152	1492.488144662912	414.179962139831	1013.180557888220	932.172551217137	561.104828060350	968.975077950590	958.616395911389	290.746855603358	1000.088883313273	719.884833162462	539.254246655304	895.617606880380	629.774808107243	607.860332945795	951.548354616430	559.626421542885	528.259277818111	927.169559812184	468.704197366583	539.361702907308	1038.406092507130	761.785274689762	329.961963166111	968.200295267079	633.857140557843	267.674743129483	1062.637133862060	568.040799322393	331.542399866574	1072.919911963736	495.387328414913	337.042466365056	1044.803918799311	422.009336070868	329.105995329527	957.046045586346	307.352413089301	277.115920308128	1009.293344479959	195.073714403494	343.754844594777	869.629172671224	393.885576859106	549.797210314549	769.764885388956	320.067399334366	616.666238457464	779.106281598374	214.268065097990	557.598730321856	600.910013847365	82.405795093066	534.908836889054	780.516149385566	102.866174003333	568.271916100958	683.151091794340	56.249249170669	605.972276299182	887.442603905476	36.404983427027	590.582650206131	880.880995199160	39.918051961978	381.293825287513	955.258722598209	36.812862553463	301.638056395964	1039.276778982643	97.128626877455	328.857562977761	1166.782481361005	42.890713515619	299.800866698711	861.403026152526	1077.701187775113	149.654498338362	986.479292845151	848.267680790764	133.354530383728	1167.746890536806	1130.059016041174	691.814437043404	1421.556247244546	1085.120897777525	665.997432175686	
91	43.910714285714	775.597530477339	1010.241277161958	466.305534123599	932.073858850688	1426.336350352602	255.518095285254	1059.316364446666	1356.684856297508	398.368666663340	1009.908927860096	1437.022821083048	581.106645292907	943.338472627946	1492.636189832904	411.187558387372	1012.419611553868	932.532666216432	557.577609988790	970.757057481247	958.326676109868	286.919137626557	1000.331479140717	720.264180297688	537.000952984296	895.756702661738	630.225181318163	605.440876957633	952.915080319132	559.543834270898	526.982293794266	928.812919569980	467.689772442419	539.243597928447	1039.743037640127	761.307212245143	327.360370212872	969.744247815568	633.053304477063	265.550494803860	1063.735413605120	567.273619291851	330.148379201838	1073.832214794314	494.237491937172	335.984017713231	1044.477153495330	420.751523783362	328.324896511692	955.341958223966	307.131777824622	276.490375231867	1005.500075293803	194.462871726328	343.681160722757	869.610931372124	393.770924698394	549.481319395184	768.024641253501	321.980573768501	615.916300598902	776.486852399689	215.458372829254	557.906484650989	596.228910329948	85.957134411190	535.354560108348	776.300112866996	103.115934024648	568.814649801982	678.017533126762	57.866044822467	606.262658207841	881.786553627032	36.372611598678	590.598687505183	875.031130556774	40.177274682550	381.363514588755	949.403195846464	36.972536676060	301.771939940608	1033.620068637700	97.049740710074	329.006587377120	1160.987977080073	42.226077920690	299.799370256772	873.835429320354	1078.229319644573	140.547480875142	1001.731177385842	850.434696813562	125.515829715181	1160.618956195414	1126.176329630523	690.542003771926	1412.035755899636	1066.886179574634	670.273891219406	
92	43.930500000000	775.597692137140	1009.837855418734	460.435280587892	934.594164220652	1426.831151440230	252.149134432119	1059.823701079993	1356.717103324180	396.502700367463	1008.093489034470	1436.540071657365	578.781687202034	943.758535075873	1492.655776272502	408.224097068624	1011.562929331586	932.830181330640	554.034952381719	972.508221956551	957.912161098060	283.089713296629	1001.015013468509	720.601638799911	534.723667978936	896.641700373158	630.388969658240	603.018492095339	955.242111313767	559.308845617893	525.700872502831	931.553149413780	466.388216986586	539.251665562471	1041.051898484792	760.704613109992	324.680886694513	971.192002831934	632.162421112747	263.387580409552	1064.762772474062	566.417648141023	328.694112495024	1074.614694983097	493.014396134392	334.896794026472	1044.056082682516	419.427928762964	327.494662589491	953.556468199526	306.846549807326	275.800785002177	1001.639631719787	193.827317484212	343.568438835401	870.577404335405	393.419647312015	549.235839576066	767.135432323374	323.943326201033	615.179353728356	774.465984686441	216.703480638160	558.252848928282	591.924187969781	90.141353551642	535.805744368650	772.334594418859	103.371964057049	569.358737111981	673.065769812220	59.888026384222	606.567237387975	876.078866818799	36.301091302886	590.628271165777	869.183610657381	40.420665548052	381.414277323088	943.549087475281	37.110414080736	301.876602851249	1027.937105655356	96.979384412602	329.126079821973	1155.179590356206	41.659248451570	299.790619916175	886.897959191597	1078.822514476717	131.856035326891	1016.797015565203	852.263515807946	118.240969564928	1152.470350623569	1121.927566494474	689.421461163754	1400.278158231000	1047.462750968597	674.921734144900	
